<svg xmlns="http://www.w3.org/2000/svg" xmlns:xlink="http://www.w3.org/1999/xlink">
      <symbol id="pencil" viewBox="0 0 512 512"><g clip-path="url(#clip0_5_56)"><mask id="a" width="512" height="512" x="0" y="0" maskUnits="userSpaceOnUse"><path d="M0 .001h511.999V512H0V.001z"/></mask><g mask="url(#a)"><path d="M.728 492.728a15.001 15.001 0 0018.544 18.544l140.006-40.002L40.73 352.723.728 492.728zM498.686 76.951l-63.635-63.635C426.568 4.833 415.271.159 403.241.154h-.021c-12.027 0-23.318 4.668-31.794 13.144L339.59 45.132l127.279 127.279 31.836-31.835c8.481-8.481 13.148-19.78 13.143-31.815-.005-12.03-4.68-23.328-13.162-31.81zM57.578 327.145l127.279 127.278 260.799-260.799L318.377 66.346l-260.8 260.799z"/></g></g></symbol>
</svg>